<svg width="24" height="24" viewBox="0 0 24 24" fill="none" xmlns="http://www.w3.org/2000/svg">
<path d="M0.512756 11.8564C0.512194 13.8729 1.04317 15.8418 2.0528 17.5772L0.416199 23.5067L6.53138 21.9156C8.22275 22.8293 10.1178 23.3081 12.0436 23.3082H12.0487C18.406 23.3082 23.581 18.1749 23.5837 11.8654C23.5849 8.80801 22.3861 5.93304 20.208 3.77006C18.0303 1.60727 15.1341 0.415549 12.0482 0.414154C5.69011 0.414154 0.515475 5.54718 0.51285 11.8564" fill="url(#paint0_linear_581_6)"/>
<path d="M0.101223 11.8527C0.100567 13.9417 0.650569 15.981 1.6962 17.7786L0.000915527 23.9207L6.33536 22.2726C8.08071 23.2168 10.0458 23.7147 12.0454 23.7154H12.0505C18.6359 23.7154 23.9968 18.3975 23.9997 11.8621C24.0008 8.69488 22.7588 5.71656 20.503 3.47609C18.2468 1.23591 15.247 0.00130233 12.0505 0C5.464 0 0.103848 5.31721 0.101223 11.8527ZM3.87353 17.469L3.63701 17.0965C2.64275 15.5277 2.11796 13.7149 2.11871 11.8534C2.12087 6.4213 6.57601 2.00186 12.0543 2.00186C14.7073 2.00298 17.2005 3.02921 19.0758 4.89116C20.951 6.7533 21.9828 9.22865 21.9822 11.8614C21.9797 17.2935 17.5245 21.7135 12.0505 21.7135H12.0466C10.2642 21.7126 8.51616 21.2376 6.99167 20.34L6.62888 20.1265L2.86989 21.1045L3.87353 17.4689V17.469Z" fill="url(#paint1_linear_581_6)"/>
<path d="M9.06373 6.89749C8.84005 6.40419 8.60466 6.39424 8.39195 6.38559C8.21777 6.37814 8.01866 6.3787 7.81973 6.3787C7.62062 6.3787 7.2971 6.45303 7.02365 6.74931C6.74991 7.04587 5.97858 7.76252 5.97858 9.2201C5.97858 10.6778 7.04849 12.0864 7.19764 12.2843C7.34697 12.4818 9.26312 15.5687 12.2978 16.7562C14.82 17.7431 15.3332 17.5468 15.8806 17.4973C16.4281 17.448 17.6471 16.7808 17.8958 16.089C18.1447 15.3973 18.1447 14.8044 18.0701 14.6805C17.9955 14.557 17.7964 14.4829 17.4978 14.3348C17.1991 14.1866 15.7313 13.4699 15.4576 13.371C15.1839 13.2722 14.9849 13.2229 14.7857 13.5195C14.5866 13.8157 14.0149 14.4829 13.8406 14.6805C13.6665 14.8785 13.4922 14.9032 13.1938 14.755C12.895 14.6063 11.9335 14.2939 10.7927 13.2847C9.90509 12.4994 9.30587 11.5296 9.13169 11.2329C8.95751 10.9367 9.11304 10.7762 9.26275 10.6286C9.3969 10.4958 9.56142 10.2826 9.71085 10.1097C9.85972 9.93666 9.9094 9.81321 10.009 9.61563C10.1086 9.41786 10.0587 9.24484 9.98421 9.09666C9.9094 8.94847 9.32921 7.48326 9.06373 6.89749Z" fill="white"/>
<defs>
<linearGradient id="paint0_linear_581_6" x1="1158.79" y1="2309.67" x2="1158.79" y2="0.414154" gradientUnits="userSpaceOnUse">
<stop stop-color="#1FAF38"/>
<stop offset="1" stop-color="#60D669"/>
</linearGradient>
<linearGradient id="paint1_linear_581_6" x1="1199.94" y1="2392.07" x2="1199.94" y2="0" gradientUnits="userSpaceOnUse">
<stop stop-color="#F9F9F9"/>
<stop offset="1" stop-color="white"/>
</linearGradient>
</defs>
</svg>
